<?xml version="1.0" encoding="UTF-8"?>
<svg id="Calque_1" xmlns="http://www.w3.org/2000/svg" xmlns:xlink="http://www.w3.org/1999/xlink" viewBox="0 0 1717 368.5">
  <defs>
    <style>
      .cls-1 {
        fill: url(#Dégradé_sans_nom_8);
      }
    </style>
    <linearGradient id="Dégradé_sans_nom_8" data-name="Dégradé sans nom 8" x1="373.94" y1="6.23" x2="373.94" y2="361.9" gradientUnits="userSpaceOnUse">
      <stop offset=".2" stop-color="#ebff00"/>
      <stop offset="1" stop-color="#32ff00"/>
    </linearGradient>
  </defs>
  <path class="cls-1" d="M421.6,299.9c98.98,123.98,318.26,45.55,312.57-115.75-6.37-189.81-242.74-242.8-338-81.8l1.51,1.94,38,49.25c7.01-8.7,31.43-41.87,38.98-49.23,66.2-73.04,199.67-20.35,196.17,79.82,3.61,104.42-139.12,154.57-202.05,73.32-3.16-4.2-29.14-37.62-33.01-42.71-30.55-39.57-65.85-85.34-96.41-124.92C307.69,41.73,256.84,8.73,196.16,6.62l-.31-.39h-1.03l.26.35c-237.72-3.97-244.04,350.74-6.37,355.31,71.39.5,123.69-40.02,160.61-95.4h0s0,0,0,0h0s-1.86-2.41-1.86-2.41l-38.06-49.34h0s-.09-.1-.09-.1l.08.11-.02.02-.09-.13c-.08.18-25.74,33.3-25.83,33.48-59.4,92.29-211.21,47.21-209.13-63.98-3.43-100.15,129.91-152.88,196.18-79.81,48.79,63.37,102.28,132.21,151.07,195.58Z"/>
  <g>
    <path d="M993.51,102.13v29.21h-119.65c-8.27,0-14.99,6.82-14.99,15.09v21.02h105.44v29.21h-105.53v69.32h-29.11v-119.55c0-24.44,19.76-44.3,44.2-44.3h119.65Z"/>
    <path d="M1170.38,184.06c0,45.25-36.68,81.93-81.93,81.93s-81.92-36.68-81.92-81.93,36.67-81.93,81.92-81.93,81.93,36.68,81.93,81.93ZM1141.18,184.05c0-29.08-23.66-52.73-52.73-52.73s-52.72,23.65-52.72,52.73,23.65,52.73,52.72,52.73,52.73-23.65,52.73-52.73Z"/>
    <path d="M1339.7,102.04h-36.8l-45.08,58.42-45.07-58.42h-36.9l63.47,82.27-63.08,81.78h36.9l44.68-57.93,44.69,57.93h36.9l-63.19-81.78,63.48-82.27h0Z"/>
    <path d="M1509.03,184.06c0,45.25-36.68,81.93-81.93,81.93s-81.92-36.68-81.92-81.93,36.67-81.93,81.92-81.93,81.93,36.68,81.93,81.93ZM1479.83,184.05c0-29.08-23.66-52.73-52.73-52.73s-52.72,23.65-52.72,52.73,23.65,52.73,52.72,52.73,52.73-23.65,52.73-52.73Z"/>
    <path d="M1704.91,102.09v163.95l-29.3-22.59-105.34-81.19v103.78h-29.3V102.67l29.3,22.58,105.34,81.19v-104.37h29.3Z"/>
  </g>
</svg>